<svg width="22" height="22" viewBox="0 0 22 22" version="1.1" xmlns="http://www.w3.org/2000/svg" xmlns:xlink="http://www.w3.org/1999/xlink">
<title>globe</title>
<desc>Created using Figma</desc>
<g id="Canvas" transform="translate(-32366 2223)">
<g id="globe">
<g id="Vector">
<use xlink:href="#path0_stroke" transform="translate(32367 -2222)" fill="#2F80ED"/>
</g>
<g id="Vector">
<use xlink:href="#path1_stroke" transform="translate(32367 -2212)" fill="#2F80ED"/>
</g>
<g id="Vector">
<use xlink:href="#path2_stroke" transform="translate(32373 -2222)" fill="#2F80ED"/>
</g>
</g>
</g>
<defs>
<path id="path0_stroke" d="M 19 10C 19 14.9706 14.9706 19 10 19L 10 21C 16.0751 21 21 16.0751 21 10L 19 10ZM 10 19C 5.02944 19 1 14.9706 1 10L -1 10C -1 16.0751 3.92487 21 10 21L 10 19ZM 1 10C 1 5.02944 5.02944 1 10 1L 10 -1C 3.92487 -1 -1 3.92487 -1 10L 1 10ZM 10 1C 14.9706 1 19 5.02944 19 10L 21 10C 21 3.92487 16.0751 -1 10 -1L 10 1Z"/>
<path id="path1_stroke" d="M 0 -1C -0.552285 -1 -1 -0.552285 -1 0C -1 0.552285 -0.552285 1 0 1L 0 -1ZM 20 1C 20.5523 1 21 0.552285 21 0C 21 -0.552285 20.5523 -1 20 -1L 20 1ZM 0 1L 20 1L 20 -1L 0 -1L 0 1Z"/>
<path id="path2_stroke" d="M 8 10L 8.99978 10.0208C 9.00007 10.0069 9.00007 9.99306 8.99978 9.97917L 8 10ZM 4 20L 3.26165 20.6744C 3.45111 20.8818 3.71908 21 4 21C 4.28092 21 4.54889 20.8818 4.73835 20.6744L 4 20ZM 3.55271e-15 10L -0.999783 9.97917C -1.00007 9.99306 -1.00007 10.0069 -0.999783 10.0208L 3.55271e-15 10ZM 3.26165 0.674423C 5.65421 3.26983 6.94282 6.49136 7.00022 10.0208L 8.99978 9.97917C 8.90269 6.09271 7.34835 2.20687 4.73835 -0.674423L 3.26165 0.674423ZM 7.00022 9.97917C 6.94282 13.5086 5.65421 16.7302 3.26165 19.3256L 4.73835 20.6744C 7.34835 17.7931 8.90269 13.9073 8.99978 10.0208L 7.00022 9.97917ZM 4.73835 19.3256C 2.34579 16.7302 1.05718 13.5086 0.999783 9.97917L -0.999783 10.0208C -0.902686 13.9073 0.651648 17.7931 3.26165 20.6744L 4.73835 19.3256ZM 0.999783 10.0208C 1.05718 6.49136 2.34579 3.26983 4.73835 0.674423L 3.26165 -0.674423C 0.651648 2.20687 -0.902686 6.09271 -0.999783 9.97917L 0.999783 10.0208Z"/>
</defs>
</svg>
