<svg width="28" height="29" viewBox="0 0 28 29" version="1.1" xmlns="http://www.w3.org/2000/svg" xmlns:xlink="http://www.w3.org/1999/xlink" xmlns:figma="http://www.figma.com/figma/ns">
<title>in</title>
<desc>Created using Figma</desc>
<g id="Canvas" transform="translate(882 -6875)" figma:type="canvas">
<g id="in" style="mix-blend-mode:normal;" figma:type="vector">
<use xlink:href="#path0_fill" transform="translate(-882 6875.79)" fill="#FFFFFF" fill-opacity="0.5" style="mix-blend-mode:normal;"/>
</g>
</g>
<defs>
<path id="path0_fill" d="M 25.9321 0L 2.06883 0C 0.926155 0 0 0.897902 0 2.00614L 0 25.993C 0 27.1013 0.92648 28 2.06883 28L 25.9321 28C 27.0746 28 27.9997 27.1007 27.9997 25.993L 27.9997 2.00614C 27.9997 0.898228 27.0746 0 25.9321 0ZM 8.4887 23.4379L 4.25815 23.4379L 4.25815 10.7962L 8.4887 10.7962L 8.4887 23.4379ZM 6.37385 9.06919L 6.3454 9.06919C 4.92671 9.06919 4.00707 8.09896 4.00707 6.88429C 4.00707 5.64514 4.95373 4.70121 6.40054 4.70121C 7.84748 4.70121 8.73751 5.64488 8.76563 6.88429C 8.76563 8.09922 7.84781 9.06919 6.37385 9.06919ZM 23.7386 23.4379L 19.5094 23.4379L 19.5094 16.6742C 19.5094 14.9747 18.8966 13.815 17.3672 13.815C 16.1972 13.815 15.5027 14.5973 15.1977 15.3527C 15.0847 15.6224 15.0567 15.9998 15.0567 16.3765L 15.0567 23.4376L 10.8283 23.4376C 10.8283 23.4376 10.8836 11.9817 10.8283 10.7961L 15.0573 10.7961L 15.0573 12.5883C 15.6187 11.7271 16.622 10.4986 18.8678 10.4986C 21.6514 10.4986 23.7386 12.3044 23.7386 16.1891L 23.7386 23.4379ZM 15.03 12.6284C 15.0372 12.6166 15.0473 12.6021 15.0573 12.5883L 15.0573 12.6284L 15.03 12.6284Z"/>
</defs>
</svg>
