<svg width="22" height="18" viewBox="0 0 22 18" version="1.1" xmlns="http://www.w3.org/2000/svg" xmlns:xlink="http://www.w3.org/1999/xlink">
<title>mail</title>
<desc>Created using Figma</desc>
<g id="Canvas" transform="translate(-32366 2121)">
<g id="mail">
<g id="Vector">
<use xlink:href="#path0_stroke" transform="translate(32367 -2120)" fill="#2F80ED"/>
</g>
<g id="Vector">
<use xlink:href="#path1_stroke" transform="translate(32367 -2118)" fill="#2F80ED"/>
</g>
</g>
</g>
<defs>
<path id="path0_stroke" d="M 2 1L 18 1L 18 -1L 2 -1L 2 1ZM 18 1C 18.5477 1 19 1.45228 19 2L 21 2C 21 0.347715 19.6523 -1 18 -1L 18 1ZM 19 2L 19 14L 21 14L 21 2L 19 2ZM 19 14C 19 14.5477 18.5477 15 18 15L 18 17C 19.6523 17 21 15.6523 21 14L 19 14ZM 18 15L 2 15L 2 17L 18 17L 18 15ZM 2 15C 1.45228 15 1 14.5477 1 14L -1 14C -1 15.6523 0.347715 17 2 17L 2 15ZM 1 14L 1 2L -1 2L -1 14L 1 14ZM 1 2C 1 1.45228 1.45228 1 2 1L 2 -1C 0.347715 -1 -1 0.347715 -1 2L 1 2Z"/>
<path id="path1_stroke" d="M 20.5735 0.819232C 21.0259 0.502517 21.1359 -0.121013 20.8192 -0.573462C 20.5025 -1.02591 19.879 -1.13595 19.4265 -0.819232L 20.5735 0.819232ZM 10 7L 9.42654 7.81923C 9.77086 8.06026 10.2291 8.06026 10.5735 7.81923L 10 7ZM 0.573462 -0.819232C 0.121013 -1.13595 -0.502517 -1.02591 -0.819232 -0.573462C -1.13595 -0.121013 -1.02591 0.502517 -0.573462 0.819232L 0.573462 -0.819232ZM 19.4265 -0.819232L 9.42654 6.18077L 10.5735 7.81923L 20.5735 0.819232L 19.4265 -0.819232ZM 10.5735 6.18077L 0.573462 -0.819232L -0.573462 0.819232L 9.42654 7.81923L 10.5735 6.18077Z"/>
</defs>
</svg>
