<svg width="32" height="32" viewBox="0 0 32 32" version="1.1" xmlns="http://www.w3.org/2000/svg" xmlns:xlink="http://www.w3.org/1999/xlink">
<title>Group</title>
<desc>Created using Figma</desc>
<g id="Canvas" transform="translate(-30217 1820)">
<g id="Group">
<g id="Rectangle 8">
<use xlink:href="#path0_fill" transform="translate(30217 -1820)" fill="#2F80ED"/>
</g>
<g id="user-check">
<g id="Vector">
<use xlink:href="#path1_stroke" transform="translate(30225 -1801.67)" fill="#FFFFFF"/>
</g>
<g id="Vector">
<use xlink:href="#path2_stroke" transform="translate(30227.7 -1811)" fill="#FFFFFF"/>
</g>
<g id="Vector">
<use xlink:href="#path3_stroke" transform="translate(30237.4 -1806.33)" fill="#FFFFFF"/>
</g>
</g>
</g>
</g>
<defs>
<path id="path0_fill" d="M 0 2C 0 0.895431 0.895431 0 2 0L 30 0C 31.1046 0 32 0.895431 32 2L 32 30C 32 31.1046 31.1046 32 30 32L 2 32C 0.895431 32 0 31.1046 0 30L 0 2Z"/>
<path id="path1_stroke" d="M 10.5909 4.66667C 10.5909 5.21895 11.0386 5.66667 11.5909 5.66667C 12.1432 5.66667 12.5909 5.21895 12.5909 4.66667L 10.5909 4.66667ZM 11.5909 3.11111L 12.5909 3.11111L 11.5909 3.11111ZM 8.5 1.38161e-15L 8.5 -1L 8.5 1.38161e-15ZM 3.09091 1.38161e-15L 3.09091 -1L 3.09091 1.38161e-15ZM 6.0053e-16 3.11111L -1 3.11111L 6.0053e-16 3.11111ZM -1 4.66667C -1 5.21895 -0.552285 5.66667 6.0053e-16 5.66667C 0.552285 5.66667 1 5.21895 1 4.66667L -1 4.66667ZM 12.5909 4.66667L 12.5909 3.11111L 10.5909 3.11111L 10.5909 4.66667L 12.5909 4.66667ZM 12.5909 3.11111C 12.5909 2.02287 12.1615 0.9779 11.395 0.206424L 9.9762 1.61602C 10.369 2.01144 10.5909 2.54911 10.5909 3.11111L 12.5909 3.11111ZM 11.395 0.206424C 10.6283 -0.565272 9.58709 -1 8.5 -1L 8.5 1C 9.05243 1 9.58357 1.22083 9.9762 1.61602L 11.395 0.206424ZM 8.5 -1L 3.09091 -1L 3.09091 1L 8.5 1L 8.5 -1ZM 3.09091 -1C 2.00382 -1 0.962585 -0.565272 0.1959 0.206424L 1.61471 1.61602C 2.00734 1.22083 2.53848 1 3.09091 1L 3.09091 -1ZM 0.1959 0.206424C -0.570567 0.9779 -1 2.02287 -1 3.11111L 1 3.11111C 1 2.54912 1.22186 2.01144 1.61471 1.61602L 0.1959 0.206424ZM -1 3.11111L -1 4.66667L 1 4.66667L 1 3.11111L -1 3.11111Z"/>
<path id="path2_stroke" d="M 5.18182 3.11111C 5.18182 4.2832 4.23955 5.22222 3.09091 5.22222L 3.09091 7.22222C 5.35639 7.22222 7.18182 5.37546 7.18182 3.11111L 5.18182 3.11111ZM 3.09091 5.22222C 1.94226 5.22222 1 4.2832 1 3.11111L -1 3.11111C -1 5.37546 0.82543 7.22222 3.09091 7.22222L 3.09091 5.22222ZM 1 3.11111C 1 1.93902 1.94226 1 3.09091 1L 3.09091 -1C 0.82543 -1 -1 0.846759 -1 3.11111L 1 3.11111ZM 3.09091 1C 4.23955 1 5.18182 1.93902 5.18182 3.11111L 7.18182 3.11111C 7.18182 0.846759 5.35639 -1 3.09091 -1L 3.09091 1Z"/>
<path id="path3_stroke" d="M 0.709406 0.850756C 0.320156 0.458962 -0.313005 0.456899 -0.7048 0.846149C -1.09659 1.2354 -1.09866 1.86856 -0.709406 2.26036L 0.709406 0.850756ZM 1.54545 3.11111L 0.836048 3.81591C 1.02377 4.00486 1.27911 4.11111 1.54545 4.11111C 1.8118 4.11111 2.06714 4.00486 2.25486 3.81591L 1.54545 3.11111ZM 5.34577 0.7048C 5.73502 0.313005 5.73296 -0.320156 5.34116 -0.709406C 4.94937 -1.09866 4.31621 -1.09659 3.92696 -0.7048L 5.34577 0.7048ZM -0.709406 2.26036L 0.836048 3.81591L 2.25486 2.40631L 0.709406 0.850756L -0.709406 2.26036ZM 2.25486 3.81591L 5.34577 0.7048L 3.92696 -0.7048L 0.836048 2.40631L 2.25486 3.81591Z"/>
</defs>
</svg>
