<svg width="32" height="32" viewBox="0 0 32 32" version="1.1" xmlns="http://www.w3.org/2000/svg" xmlns:xlink="http://www.w3.org/1999/xlink">
<title>Group</title>
<desc>Created using Figma</desc>
<g id="Canvas" transform="translate(-30217 1722)">
<g id="Group">
<g id="Rectangle 8">
<use xlink:href="#path0_fill" transform="translate(30217 -1722)" fill="#2F80ED"/>
</g>
<g id="message-circle">
<g id="Vector">
<use xlink:href="#path1_stroke" transform="translate(30226 -1713)" fill="#FFFFFF"/>
</g>
</g>
</g>
</g>
<defs>
<path id="path0_fill" d="M 0 2C 0 0.895431 0.895431 0 2 0L 30 0C 31.1046 0 32 0.895431 32 2L 32 30C 32 31.1046 31.1046 32 30 32L 2 32C 0.895431 32 0 31.1046 0 30L 0 2Z"/>
<path id="path1_stroke" d="M 14 6.61112L 13 6.61112L 13 6.61373L 14 6.61112ZM 13.3 9.56667L 12.4074 9.11582L 12.4055 9.11962L 13.3 9.56667ZM 7.38888 13.2222L 7.38849 12.2222L 7.38627 12.2222L 7.38888 13.2222ZM 4.43333 12.5222L 4.88418 11.6296C 4.64619 11.5094 4.37004 11.4892 4.1171 11.5735L 4.43333 12.5222ZM 0 14L -0.948683 13.6838C -1.06846 14.0431 -0.974939 14.4393 -0.707107 14.7071C -0.439275 14.9749 -0.043107 15.0685 0.316228 14.9487L 0 14ZM 1.47778 9.56667L 2.42646 9.8829C 2.51077 9.62996 2.49058 9.35381 2.37037 9.11582L 1.47778 9.56667ZM 0.777777 6.61112L 1.77778 6.61373L 1.77778 6.61151L 0.777777 6.61112ZM 1.76611 3.13645L 0.915608 2.61048L 1.76611 3.13645ZM 4.43333 0.700021L 4.88039 1.59453L 4.88418 1.59262L 4.43333 0.700021ZM 7.38888 2.21574e-05L 7.38627 1.00002L 7.38888 1.00002L 7.38888 2.21574e-05ZM 7.77777 2.21574e-05L 7.83285 -0.998459C 7.81451 -0.999472 7.79614 -0.999978 7.77777 -0.999978L 7.77777 2.21574e-05ZM 14 6.22223L 15 6.22223C 15 6.20386 14.9995 6.18549 14.9985 6.16715L 14 6.22223ZM 13 6.61373C 13.0093 7.52296 12.8235 8.30733 12.4074 9.11582L 14.1926 10.0175C 14.7021 8.99339 14.9961 7.75241 15 6.60852L 13 6.61373ZM 12.4055 9.11962C 11.9269 10.0985 11.2693 10.8184 10.3376 11.3834L 11.3895 13.0844C 12.5458 12.3581 13.5755 11.2309 14.1945 10.0137L 12.4055 9.11962ZM 10.3376 11.3834C 9.41591 11.9646 8.47809 12.2314 7.38849 12.2222L 7.38926 14.2222C 8.75471 14.2121 10.2232 13.7944 11.3895 13.0844L 10.3376 11.3834ZM 7.38627 12.2222C 6.47704 12.2315 5.69267 12.0457 4.88418 11.6296L 3.98247 13.4148C 5.00661 13.9244 6.24759 14.2183 7.39148 14.2222L 7.38627 12.2222ZM 4.1171 11.5735L -0.316228 13.0513L 0.316228 14.9487L 4.74955 13.4709L 4.1171 11.5735ZM 0.948683 14.3162L 2.42646 9.8829L 0.529092 9.25045L -0.948683 13.6838L 0.948683 14.3162ZM 2.37037 9.11582C 1.95427 8.30733 1.7685 7.52296 1.77777 6.61373L -0.22222 6.60852C -0.218298 7.75241 0.0756199 8.99339 0.585177 10.0175L 2.37037 9.11582ZM 1.77778 6.61151C 1.76864 5.52191 2.03539 4.58409 2.61662 3.66241L 0.915608 2.61048C 0.205554 3.77682 -0.212138 5.24529 -0.222223 6.61074L 1.77778 6.61151ZM 2.61662 3.66241C 3.18158 2.73068 3.90146 2.07309 4.88038 1.59453L 3.98627 -0.194483C 2.76914 0.4245 1.64192 1.45419 0.915608 2.61048L 2.61662 3.66241ZM 4.88418 1.59262C 5.69267 1.17652 6.47704 0.990743 7.38627 1.00002L 7.39148 -0.999974C 6.24759 -0.996052 5.00661 -0.702134 3.98247 -0.192577L 4.88418 1.59262ZM 7.38888 1.00002L 7.77777 1.00002L 7.77777 -0.999978L 7.38888 -0.999978L 7.38888 1.00002ZM 7.72268 0.998504C 9.16347 1.06135 10.3632 1.59746 11.3711 2.62891L 12.7853 1.21469C 11.4971 -0.050012 9.63438 -0.882426 7.83285 -0.998459L 7.72268 0.998504ZM 11.3711 2.62891C 12.4025 3.63685 12.9387 4.83653 13.0015 6.27732L 14.9985 6.16715C 14.8824 4.36562 14.05 2.5029 12.7853 1.21469L 11.3711 2.62891ZM 13 6.22223L 13 6.61112L 15 6.61112L 15 6.22223L 13 6.22223Z"/>
</defs>
</svg>
