<svg width="32" height="32" viewBox="0 0 32 32" version="1.1" xmlns="http://www.w3.org/2000/svg" xmlns:xlink="http://www.w3.org/1999/xlink">
<title>Group</title>
<desc>Created using Figma</desc>
<g id="Canvas" transform="translate(-30217 1578)">
<g id="Group">
<g id="Rectangle 8">
<use xlink:href="#path0_fill" transform="translate(30217 -1578)" fill="#2F80ED"/>
</g>
<g id="thumbs-up">
<g id="Vector">
<use xlink:href="#path1_stroke" transform="translate(30226 -1569)" fill="#FFFFFF"/>
</g>
</g>
</g>
</g>
<defs>
<path id="path0_fill" d="M 0 2C 0 0.895431 0.895431 0 2 0L 30 0C 31.1046 0 32 0.895431 32 2L 32 30C 32 31.1046 31.1046 32 30 32L 2 32C 0.895431 32 0 31.1046 0 30L 0 2Z"/>
<path id="path1_stroke" d="M 8.53544 4.89997L 7.53544 4.89997C 7.53544 5.45225 7.98315 5.89997 8.53544 5.89997L 8.53544 4.89997ZM 8.53544 2.09999L 9.53544 2.09999L 8.53544 2.09999ZM 6.40158 1.5543e-16L 6.40158 -1C 6.00855 -1 5.65197 -0.769778 5.49021 -0.411587L 6.40158 1.5543e-16ZM 3.55643 6.29996L 2.64506 5.88837C 2.58664 6.01772 2.55643 6.15803 2.55643 6.29996L 3.55643 6.29996ZM 3.55643 13.9999L 2.55643 13.9999C 2.55643 14.5522 3.00415 14.9999 3.55643 14.9999L 3.55643 13.9999ZM 11.5797 13.9999L 11.5909 12.9999L 11.5797 12.9999L 11.5797 13.9999ZM 13.0023 12.8099L 12.0142 12.656L 12.014 12.6576L 13.0023 12.8099ZM 13.9839 6.50996L 14.972 6.66391L 14.9722 6.66239L 13.9839 6.50996ZM 12.5613 4.89997L 12.5613 5.90003L 12.5725 5.89991L 12.5613 4.89997ZM 3.55643 14.9999C 4.10872 14.9999 4.55643 14.5522 4.55643 13.9999C 4.55643 13.4476 4.10872 12.9999 3.55643 12.9999L 3.55643 14.9999ZM 0 12.5999L -1 12.5999L 0 12.5999ZM 1.42257 6.29996L 1.42257 7.29996L 1.42257 6.29996ZM 3.55643 7.29996C 4.10872 7.29996 4.55643 6.85224 4.55643 6.29996C 4.55643 5.74767 4.10872 5.29996 3.55643 5.29996L 3.55643 7.29996ZM 9.53544 4.89997L 9.53544 2.09999L 7.53544 2.09999L 7.53544 4.89997L 9.53544 4.89997ZM 9.53544 2.09999C 9.53544 1.27261 9.20131 0.482414 8.61187 -0.0976693L 7.20902 1.32781C 7.41993 1.53538 7.53544 1.81346 7.53544 2.09999L 9.53544 2.09999ZM 8.61187 -0.0976693C 8.02297 -0.677219 7.22761 -1 6.40158 -1L 6.40158 1C 6.70741 1 6.99756 1.11971 7.20902 1.32781L 8.61187 -0.0976693ZM 5.49021 -0.411587L 2.64506 5.88837L 4.4678 6.71155L 7.31295 0.411587L 5.49021 -0.411587ZM 2.55643 6.29996L 2.55643 13.9999L 4.55643 13.9999L 4.55643 6.29996L 2.55643 6.29996ZM 3.55643 14.9999L 11.5797 14.9999L 11.5797 12.9999L 3.55643 12.9999L 3.55643 14.9999ZM 11.5686 14.9998C 12.0873 14.9901 12.7518 14.7537 13.1588 14.4337L 11.8755 12.8997C 11.7597 13.0171 11.7584 13.0173 11.5909 13L 11.5686 14.9998ZM 13.1588 14.4337C 13.5468 14.0882 13.8956 13.4716 13.9907 12.9622L 12.014 12.6576C 12.0062 12.8159 12.0103 12.8079 11.8755 12.8997L 13.1588 14.4337ZM 13.9904 12.9639L 14.972 6.66391L 12.9958 6.35601L 12.0142 12.656L 13.9904 12.9639ZM 14.9722 6.66239C 15.0139 6.3523 14.9855 5.92842 14.9027 5.62659L 12.9845 6.19249C 13.0167 6.28046 13.0158 6.26632 12.9956 6.35753L 14.9722 6.66239ZM 14.9027 5.62659C 14.8086 5.32855 14.6031 4.95758 14.4003 4.71908L 12.9015 6.04337C 12.9693 6.11116 12.9636 6.10073 12.9845 6.19249L 14.9027 5.62659ZM 14.4003 4.71908C 14.1891 4.48892 13.8479 4.23958 13.5639 4.10787L 12.7559 5.93737C 12.8483 5.97186 12.8421 5.96724 12.9015 6.04337L 14.4003 4.71908ZM 13.5639 4.10787C 13.2759 3.98689 12.8629 3.90223 12.5502 3.90003L 12.5725 5.89991C 12.6722 5.89312 12.6677 5.89216 12.7559 5.93737L 13.5639 4.10787ZM 12.5613 3.89997L 8.53544 3.89997L 8.53544 5.89997L 12.5613 5.89997L 12.5613 3.89997ZM 3.55643 12.9999L 1.42257 12.9999L 1.42257 14.9999L 3.55643 14.9999L 3.55643 12.9999ZM 1.42257 12.9999C 1.30538 12.9999 1.19615 12.9539 1.11809 12.8771L -0.284765 14.3026C 0.17074 14.7509 0.785183 14.9999 1.42257 14.9999L 1.42257 12.9999ZM 1.11809 12.8771C 1.04057 12.8008 1 12.7008 1 12.5999L -1 12.5999C -1 13.2416 -0.740813 13.8538 -0.284765 14.3026L 1.11809 12.8771ZM 1 12.5999L 1 7.69995L -1 7.69995L -1 12.5999L 1 12.5999ZM 1 7.69995C 1 7.59908 1.04057 7.49904 1.11809 7.42275L -0.284765 5.99727C -0.740813 6.44607 -1 7.05822 -1 7.69995L 1 7.69995ZM 1.11809 7.42275C 1.19615 7.34592 1.30538 7.29996 1.42257 7.29996L 1.42257 5.29996C 0.785183 5.29996 0.17074 5.54899 -0.284765 5.99727L 1.11809 7.42275ZM 1.42257 7.29996L 3.55643 7.29996L 3.55643 5.29996L 1.42257 5.29996L 1.42257 7.29996Z"/>
</defs>
</svg>
