<svg width="32" height="32" viewBox="0 0 32 32" version="1.1" xmlns="http://www.w3.org/2000/svg" xmlns:xlink="http://www.w3.org/1999/xlink">
<title>Group</title>
<desc>Created using Figma</desc>
<g id="Canvas" transform="translate(-30217 1918)">
<g id="Group">
<g id="Rectangle 8">
<use xlink:href="#path0_fill" transform="translate(30217 -1918)" fill="#2F80ED"/>
</g>
<g id="trending-up">
<g id="Vector">
<use xlink:href="#path1_stroke" transform="translate(30224 -1906)" fill="#FFFFFF"/>
</g>
<g id="Vector">
<use xlink:href="#path2_stroke" transform="translate(30236.4 -1906)" fill="#FFFFFF"/>
</g>
</g>
</g>
</g>
<defs>
<path id="path0_fill" d="M 0 2C 0 0.895431 0.895431 0 2 0L 30 0C 31.1046 0 32 0.895431 32 2L 32 30C 32 31.1046 31.1046 32 30 32L 2 32C 0.895431 32 0 31.1046 0 30L 0 2Z"/>
<path id="path1_stroke" d="M 17.6965 0.717581C 18.0928 0.332928 18.1022 -0.300167 17.7176 -0.696475C 17.3329 -1.09278 16.6998 -1.10223 16.3035 -0.717581L 17.6965 0.717581ZM 9.65909 7.125L 8.96262 7.84258C 9.35059 8.21914 9.9676 8.21914 10.3556 7.84258L 9.65909 7.125ZM 5.79545 3.375L 6.49193 2.65742C 6.10396 2.28086 5.48695 2.28086 5.09898 2.65742L 5.79545 3.375ZM -0.696475 8.28242C -1.09278 8.66707 -1.10223 9.30017 -0.717581 9.69648C -0.332928 10.0928 0.300167 10.1022 0.696475 9.71758L -0.696475 8.28242ZM 16.3035 -0.717581L 8.96262 6.40742L 10.3556 7.84258L 17.6965 0.717581L 16.3035 -0.717581ZM 10.3556 6.40742L 6.49193 2.65742L 5.09898 4.09258L 8.96262 7.84258L 10.3556 6.40742ZM 5.09898 2.65742L -0.696475 8.28242L 0.696475 9.71758L 6.49193 4.09258L 5.09898 2.65742Z"/>
<path id="path2_stroke" d="M 0 -1C -0.552285 -1 -1 -0.552285 -1 0C -1 0.552285 -0.552285 1 0 1L 0 -1ZM 4.63636 0L 5.63636 0C 5.63636 -0.552285 5.18865 -1 4.63636 -1L 4.63636 0ZM 3.63636 4.5C 3.63636 5.05228 4.08408 5.5 4.63636 5.5C 5.18865 5.5 5.63636 5.05228 5.63636 4.5L 3.63636 4.5ZM 0 1L 4.63636 1L 4.63636 -1L 0 -1L 0 1ZM 3.63636 0L 3.63636 4.5L 5.63636 4.5L 5.63636 0L 3.63636 0Z"/>
</defs>
</svg>
