<svg width="22" height="22" viewBox="0 0 22 22" version="1.1" xmlns="http://www.w3.org/2000/svg" xmlns:xlink="http://www.w3.org/1999/xlink">
<title>phone-call</title>
<desc>Created using Figma</desc>
<g id="Canvas" transform="translate(-32366 2173)">
<g id="phone-call">
<g id="Vector">
<use xlink:href="#path0_stroke" transform="translate(32367 -2172)" fill="#2F80ED"/>
</g>
</g>
</g>
<defs>
<path id="path0_stroke" d="M 12.5792 2.84105C 12.0371 2.73548 11.512 3.08937 11.4065 3.63147C 11.3009 4.17357 11.6548 4.69861 12.1969 4.80417L 12.5792 2.84105ZM 15.1886 7.78928C 15.2946 8.33131 15.8199 8.68481 16.3619 8.57886C 16.9039 8.47291 17.2575 7.94761 17.1515 7.40559L 15.1886 7.78928ZM 12.4982 -0.993909C 11.9493 -1.05477 11.455 -0.659125 11.3941 -0.110204C 11.3332 0.438717 11.7289 0.933045 12.2778 0.993909L 12.4982 -0.993909ZM 17.5261 2.46272L 16.8201 3.17095L 17.5261 2.46272ZM 19.0063 7.69975C 19.0681 8.24857 19.5631 8.64339 20.1119 8.5816C 20.6607 8.51981 21.0555 8.02482 20.9937 7.476L 19.0063 7.69975ZM 19.0425 15.214L 18.0428 15.1891C 18.0426 15.1974 18.0425 15.2057 18.0425 15.214L 19.0425 15.214ZM 19.0425 18.0809L 18.0425 18.0809L 18.0425 18.085L 19.0425 18.0809ZM 16.9552 19.9922L 16.8474 20.9864C 16.8534 20.9871 16.8594 20.9877 16.8654 20.9882L 16.9552 19.9922ZM 8.69213 17.0584L 9.23553 16.2189L 9.22773 16.2139L 8.69213 17.0584ZM 2.94724 11.3245L 3.79082 10.7874L 3.78605 10.78L 2.94724 11.3245ZM 0.00777152 3.03897L -0.988155 3.12914C -0.987683 3.13436 -0.98717 3.13957 -0.986616 3.14477L 0.00777152 3.03897ZM 0.100169 2.25689L -0.847338 1.93716L 0.100169 2.25689ZM 1.91316 0.955652L 1.91316 -0.0443483L 1.91222 -0.0443474L 1.91316 0.955652ZM 4.78561 0.955652L 4.78561 1.9557L 4.79543 1.9556L 4.78561 0.955652ZM 6.70057 2.59937L 7.692 2.46836L 7.69069 2.45916L 6.70057 2.59937ZM 7.37081 5.28476L 6.43413 5.63495L 6.43498 5.63721L 7.37081 5.28476ZM 6.93994 7.30118L 7.64638 8.00898L 7.65032 8.005L 6.93994 7.30118ZM 5.72394 8.51486L 5.01751 7.80708C 4.69843 8.12555 4.63189 8.61815 4.85505 9.00987L 5.72394 8.51486ZM 11.4688 14.2488L 10.9753 15.1185C 11.3662 15.3403 11.8571 15.2741 12.1753 14.9566L 11.4688 14.2488ZM 12.6848 13.0351L 11.9824 12.3234L 11.9784 12.3273L 12.6848 13.0351ZM 14.7051 12.6051L 14.3539 13.5413L 14.3561 13.5422L 14.7051 12.6051ZM 17.3956 13.274L 17.5351 12.2837L 17.5262 12.2826L 17.3956 13.274ZM 12.1969 4.80417C 12.9895 4.94738 13.5884 5.2655 14.15 5.84148L 15.5629 4.42592C 14.777 3.65696 13.657 3.06206 12.5792 2.84105L 12.1969 4.80417ZM 14.15 5.84148C 14.727 6.40184 15.0453 6.99886 15.1886 7.78928L 17.1515 7.40559C 16.9299 6.32917 16.3335 5.21051 15.5629 4.42592L 14.15 5.84148ZM 12.2778 0.993909C 14.0559 1.17685 15.5656 1.90043 16.8201 3.17095L 18.2321 1.7545C 16.7201 0.267325 14.6061 -0.745977 12.4982 -0.993909L 12.2778 0.993909ZM 16.8201 3.17095C 18.0945 4.42126 18.8209 5.9261 19.0063 7.69975L 20.9937 7.476C 20.7425 5.37164 19.7242 3.26188 18.2321 1.7545L 16.8201 3.17095ZM 18.0425 15.214L 18.0425 18.0809L 20.0425 18.0809L 20.0425 15.214L 18.0425 15.214ZM 18.0425 18.085C 18.0486 18.2471 18.0362 18.3067 17.9662 18.4531L 19.7981 19.2557C 19.9417 18.9143 20.0386 18.4471 20.0425 18.0769L 18.0425 18.085ZM 17.9662 18.4531C 17.906 18.6039 17.8703 18.6538 17.7468 18.7596L 19.0975 20.2346C 19.3669 19.9805 19.6446 19.5926 19.7981 19.2557L 17.9662 18.4531ZM 17.7468 18.7596C 17.6305 18.8734 17.5773 18.9048 17.4212 18.9518L 18.0609 20.8467C 18.4101 20.7232 18.8208 20.4807 19.0975 20.2346L 17.7468 18.7596ZM 17.4212 18.9518C 17.2686 19.009 17.2069 19.0163 17.045 18.9963L 16.8654 20.9882C 17.2347 21.0161 17.7083 20.9601 18.0609 20.8467L 17.4212 18.9518ZM 17.063 18.9981C 14.2316 18.6978 11.6207 17.7708 9.2355 16.2189L 8.14877 17.8979C 10.7367 19.5649 13.7862 20.6476 16.8474 20.9864L 17.063 18.9981ZM 9.22773 16.2139C 7.00345 14.8103 5.19698 13.0073 3.79079 10.7874L 2.10369 11.8615C 3.63762 14.2597 5.75393 16.372 8.15654 17.9029L 9.22773 16.2139ZM 3.78605 10.78C 2.22587 8.38894 1.2972 5.77129 1.00216 2.93317L -0.986616 3.14477C -0.653078 6.21449 0.432277 9.27382 2.10844 11.8689L 3.78605 10.78ZM 1.0037 2.9488C 0.983751 2.78836 0.990875 2.72808 1.04768 2.57663L -0.847338 1.93716C -0.960252 2.28864 -1.01606 2.76105 -0.988155 3.12914L 1.0037 2.9488ZM 1.04768 2.57663C 1.09427 2.42169 1.12529 2.36915 1.23857 2.25327L -0.237265 0.903483C -0.482462 1.17955 -0.724219 1.58916 -0.847338 1.93716L 1.04768 2.57663ZM 1.23857 2.25327C 1.34396 2.13007 1.39395 2.0942 1.54463 2.03364L 0.73783 0.203588C 0.402137 0.357448 0.0158145 0.634733 -0.237265 0.903483L 1.23857 2.25327ZM 1.54463 2.03364C 1.69104 1.96323 1.75161 1.95045 1.9141 1.95565L 1.91222 -0.0443474C 1.543 -0.0386433 1.0778 0.0595678 0.73783 0.203588L 1.54463 2.03364ZM 1.91316 1.95565L 4.78561 1.95565L 4.78561 -0.0443479L 1.91316 -0.0443479L 1.91316 1.95565ZM 4.79543 1.9556C 5.08121 1.93669 5.19569 1.9784 5.40176 2.17654L 6.70441 0.65894C 6.20583 0.252242 5.41935 -0.0345163 4.77578 -0.0442996L 4.79543 1.9556ZM 5.40176 2.17654C 5.6287 2.35002 5.68661 2.45563 5.71045 2.73959L 7.69069 2.45916C 7.58447 1.82464 7.18212 1.0903 6.70441 0.65894L 5.40176 2.17654ZM 5.70919 2.73038C 5.83943 3.70374 6.09167 4.71437 6.43413 5.63495L 8.30749 4.93456C 8.00164 4.12107 7.80419 3.32998 7.69195 2.46837L 5.70919 2.73038ZM 6.43498 5.63721C 6.5232 5.84262 6.52981 5.93077 6.47323 6.14697L 8.42907 6.56489C 8.52521 6.06632 8.47607 5.41099 8.30664 4.93231L 6.43498 5.63721ZM 6.47323 6.14697C 6.43649 6.36747 6.39424 6.44555 6.22956 6.59736L 7.65032 8.005C 8.00051 7.63715 8.31308 7.05915 8.42907 6.56489L 6.47323 6.14697ZM 6.23351 6.5934L 5.01751 7.80708L 6.43037 9.22264L 7.64637 8.00897L 6.23351 6.5934ZM 4.85505 9.00987C 6.29216 11.5142 8.46629 13.6842 10.9753 15.1185L 11.9624 13.3791C 9.67718 12.0925 7.88178 10.3005 6.59283 8.01985L 4.85505 9.00987ZM 12.1753 14.9566L 13.3913 13.7429L 11.9784 12.3273L 10.7624 13.541L 12.1753 14.9566ZM 13.3873 13.7468C 13.5396 13.5823 13.6186 13.5398 13.8401 13.503L 13.4237 11.5468C 12.9291 11.6624 12.3508 11.974 11.9824 12.3234L 13.3873 13.7468ZM 13.8401 13.503C 14.0575 13.4464 14.1474 13.4531 14.3539 13.5413L 15.0564 11.6688C 14.5775 11.4999 13.9224 11.4509 13.4237 11.5468L 13.8401 13.503ZM 14.3561 13.5422C 15.2782 13.8839 16.2902 14.1355 17.2651 14.2655L 17.5262 12.2826C 16.6626 12.1705 15.8694 11.9733 15.0541 11.6679L 14.3561 13.5422ZM 17.2562 14.2642C 17.5447 14.2882 17.6528 14.3477 17.8268 14.5782L 19.3515 13.2838C 18.9183 12.7989 18.1768 12.3908 17.5351 12.2838L 17.2562 14.2642ZM 17.8268 14.5782C 18.0259 14.7871 18.0665 14.9021 18.0428 15.1891L 20.0422 15.2388C 20.0418 14.5886 19.7598 13.7903 19.3515 13.2838L 17.8268 14.5782Z"/>
</defs>
</svg>
