<svg width="18" height="15" viewBox="0 0 18 15" version="1.1" xmlns="http://www.w3.org/2000/svg" xmlns:xlink="http://www.w3.org/1999/xlink">
<title>tw-icon</title>
<desc>Created using Figma</desc>
<g id="Canvas" transform="translate(-4356 -3322)">
<g id="tw-icon">
<use xlink:href="#path0_fill" transform="translate(4356 3322)" fill="#FFFFFF" fill-opacity="0.5"/>
</g>
</g>
<defs>
<path id="path0_fill" d="M 18 1.77579C 17.3377 2.07727 16.626 2.2803 15.879 2.37182C 16.6418 1.90346 17.2275 1.1613 17.5027 0.276866C 16.7895 0.710624 15.999 1.02594 15.1575 1.19591C 14.4847 0.459906 13.524 -7.18776e-08 12.462 -7.18776e-08C 10.0777 -7.18776e-08 8.32575 2.28107 8.86425 4.64905C 5.796 4.49139 3.075 2.984 1.25325 0.692935C 0.28575 2.39489 0.7515 4.62136 2.3955 5.74882C 1.791 5.72882 1.221 5.55886 0.72375 5.27507C 0.68325 7.02933 1.9095 8.67053 3.6855 9.03584C 3.16575 9.18042 2.5965 9.21426 2.0175 9.10044C 2.487 10.6047 3.8505 11.6991 5.4675 11.7299C 3.915 12.9781 1.959 13.5357 0 13.2988C 1.63425 14.3732 3.576 15 5.661 15C 12.5175 15 16.3912 9.06199 16.1572 3.73616C 16.8787 3.20165 17.505 2.53486 18 1.77579L 18 1.77579Z"/>
</defs>
</svg>
