<?xml version="1.0" ?><svg id="Layer_1" style="enable-background:new 0 0 512 512;" version="1.1" viewBox="0 0 512 512" xml:space="preserve" xmlns="http://www.w3.org/2000/svg" xmlns:xlink="http://www.w3.org/1999/xlink"><style type="text/css">
	.st0{fill:none;stroke:#000000;stroke-width:12;stroke-linecap:round;stroke-linejoin:round;stroke-miterlimit:10;}
</style><g><g><path d="M261.7,380.5c0,9.3,0,45.1,0,45.1c0,3.3-2.7,6-6,6c-3.3,0-6-2.7-6-6V214.8c0-3.3,2.7-6,6-6c3.3,0,6,2.7,6,6    c0,0,0,56.4,0,106.1"/><path d="M193,283.2c-6.6,6.6-10.6,10.6-10.6,10.6c-2.3,2.3-6.2,2.3-8.5,0c-2.3-2.3-2.3-6.2,0-8.5l77.8-77.8c2.3-2.3,6.2-2.3,8.5,0    s2.3,6.2,0,8.5c0,0,10.2-10.2-25,25"/><path d="M262.5,226.6c-6.6-6.6-10.6-10.6-10.6-10.6c-2.3-2.3-2.3-6.2,0-8.5s6.2-2.3,8.5,0l77.8,77.8c2.3,2.3,2.3,6.2,0,8.5    c-2.3,2.3-6.2,2.3-8.5,0c0,0,10.2,10.2-25-25"/></g><path class="st0" d="M211.8,368.6c-6.8,0.1-13.7,0-20.5,0c-14.4,0-28.9,0-43.3,0c-29.8,0.1-52.3-13.5-69.5-37   c-1.9-2.6-3.7-5.3-5.2-8"/><path class="st0" d="M64.6,302.2c-1.1-4.2-1.9-8.5-2.4-12.9c-0.1-0.7-0.4-1.4-0.7-2.1c0-4.8,0-9.6,0-14.4c1.1-5.7,1.9-11.5,3.5-17   c5-17.7,14.8-32.3,29.3-43.6c2.2-1.7,2.4-3.5,2.1-5.9c-3.9-30.6,12.5-57.5,41.3-67.6c9.2-3.2,18.8-4,28.4-2.5   c2.3,0.4,3.4-0.3,4.5-2.2c4.7-7.3,9.8-14,15.4-19.9"/><path class="st0" d="M230,85.9c11-3.6,23-5.5,35.8-5.5c30.1-0.1,55.1,9.3,74.9,27.2"/><path class="st0" d="M353.9,121.6c0.4,0.5-0.9-0.3-0.6,0.2"/><path class="st0" d="M364.8,137.6c0.7,1.1,1.3,2.2,1.9,3.4c5.1,9.2,8.4,19.2,10.4,29.6c0.4,2.3,1.4,3.5,3.8,4.4   c40.1,13.9,62.6,42.3,68.9,83.9c0.1,0.8,0.5,1.7,0.7,2.5c0,5.6,0,11.1,0,16.7c-2,8.5-3,17.3-6.1,25.3   c-14.5,37.5-41.6,60.1-81.9,64.8c-13.2,1.6-26.8,0.4-40.2,0.4c-6.7,0-13.4,0-20.1,0"/></g></svg>